<svg width="39" height="53" viewBox="0 0 39 53" fill="none" xmlns="http://www.w3.org/2000/svg">
<g clip-path="url(#clip0_2739_1651)">
<path d="M21.1703 -0.000104392L2.21397 12.5799L2.84279 16.5738L0 25.6283L1.45415 31.5475C1.45415 31.5475 0.131004 34.0843 0.379913 33.9933C0.628821 33.9022 2.39738 36.8033 2.39738 36.8033L1.57205 38.2473C1.57205 38.2473 5.10917 42.2672 5.42358 42.1371C5.73799 42.007 6.81223 39.249 6.81223 39.249L8.51528 48.8499L16.7293 52.9869L20.7118 41.4346L18.7467 30.1945L22.1004 30.7539V20.4636L27.1572 14.7525L31.8996 13.6207L35.6987 14.7525L38.9869 12.2547H35.9476L32.5284 9.41865L30.4454 9.60078L28.6114 6.77776L24.3799 6.53058L26.1485 4.20191L21.1572 -0.026123L21.1703 -0.000104392Z" fill="#0F1828" fill-opacity="0.5"/>
</g>
<defs>
<clipPath id="clip0_2739_1651">
<rect width="39" height="53" fill="white"/>
</clipPath>
</defs>
</svg>
