<svg width="60" height="80" viewBox="0 0 60 80" fill="none" xmlns="http://www.w3.org/2000/svg">
<g clip-path="url(#clip0_2739_2002)">
<path d="M58.7849 18.5321L54.2679 21.9633L48.6422 20.2874L48.6036 20.2759L48.5645 20.2852L41.451 21.9829L41.4049 21.9939L41.3735 22.0294L33.7884 30.596L33.7507 30.6386V30.6955V45.9539L28.8948 45.144L28.6859 45.1091L28.7223 45.3178L31.6633 62.1397L25.758 79.2693L13.6575 73.1748L11.116 58.8475L11.0226 58.321L10.8286 58.8192L10.9683 58.8737L10.8286 58.8193L10.8285 58.8194L10.8283 58.8199L10.8274 58.8221L10.824 58.8309L10.8105 58.8654L10.7587 58.9966C10.7139 59.1097 10.6492 59.2717 10.5702 59.4668C10.412 59.8569 10.1964 60.3789 9.96622 60.9066C9.73577 61.4349 9.49181 61.9664 9.2769 62.377C9.16926 62.5826 9.07064 62.7546 8.98605 62.8795C8.94368 62.9421 8.90685 62.99 8.87605 63.0235C8.86285 63.0378 8.85237 63.0477 8.84461 63.0544C8.83619 63.0511 8.82526 63.0462 8.81159 63.0391C8.75857 63.0117 8.68563 62.9633 8.59313 62.8922C8.40936 62.7509 8.16802 62.5358 7.88725 62.2679C7.32673 61.7331 6.62168 61.0002 5.92948 60.2592C5.23771 59.5187 4.56048 58.7718 4.05608 58.21C3.80391 57.9291 3.595 57.6946 3.44916 57.5302C3.38306 57.4558 3.32991 57.3957 3.29157 57.3523L4.4763 55.2795L4.52025 55.2026L4.47415 55.127L4.34607 55.205L4.47411 55.1269L4.47401 55.1267L4.47364 55.1261L4.47218 55.1237L4.46643 55.1143L4.44406 55.0778L4.359 54.9396C4.28557 54.8206 4.18029 54.6508 4.0528 54.4475C3.79789 54.0411 3.45389 53.5003 3.098 52.9634C2.74256 52.4273 2.37349 51.8924 2.0688 51.4991C1.917 51.3032 1.77774 51.1379 1.66199 51.0247C1.60473 50.9687 1.54767 50.9198 1.49351 50.8868C1.47695 50.8767 1.45868 50.8668 1.43905 50.8586C1.45952 50.7809 1.49822 50.6696 1.55361 50.5296C1.68507 50.1974 1.89617 49.7386 2.1207 49.272C2.34481 48.8062 2.58069 48.3359 2.76066 47.9818C2.85062 47.8048 2.92655 47.657 2.97998 47.5534L3.04217 47.4332L3.05861 47.4015L3.06282 47.3935L3.06387 47.3914L3.06414 47.3909L3.0642 47.3908L2.93122 47.3214L3.06422 47.3908L3.09039 47.3406L3.07689 47.2856L0.905671 38.4475L5.1573 24.9057L5.16783 24.8722L5.16237 24.8375L4.23411 18.9417L32.5093 0.177433L39.7672 6.32552L37.2004 9.70527L37.0302 9.92933L37.3111 9.94573L43.5826 10.3121L46.2923 14.483L46.3414 14.5586L46.4312 14.5507L49.4942 14.2829L54.5756 18.4976L54.6173 18.5321H54.6714H58.7849Z" fill="#F4833A" stroke="#09443E" stroke-width="0.3"/>
</g>
<defs>
<clipPath id="clip0_2739_2002">
<rect width="58.5" height="79.5" fill="white" transform="translate(0.75)"/>
</clipPath>
</defs>
</svg>
