<svg width="91" height="68" viewBox="0 0 91 68" fill="none" xmlns="http://www.w3.org/2000/svg">
<g clip-path="url(#clip0_2739_910)">
<path d="M90.3629 0.178429L90.5967 1.53257L83.1935 30.4192L74.202 40.88L74.1859 40.8987L74.1767 40.9215L63.5014 67.3053L52.7534 63.0153L50.9947 56.5279L50.962 56.4074L50.8375 56.4177L42.0845 57.1452L33.9652 56.0743L33.9413 56.0711L33.9176 56.0756L27.3743 57.3158L17.5578 47.17L17.5086 47.1192L17.4382 47.1248L11.8685 47.5629L8.72762 42.358L8.69328 42.3011L8.62805 42.2883L0.907752 40.7749L3.15961 4.02325L58.7539 6.44635L58.81 6.44879L58.8539 6.41383L61.8285 4.04483L72.6468 5.58415L74.5729 9.06188L74.6626 9.22373L74.8024 9.10256L83.4397 1.61688L90.3629 0.178429Z" fill="#F9C4A9" fill-opacity="0.75" stroke="#09443E" stroke-width="0.3"/>
</g>
<defs>
<clipPath id="clip0_2739_910">
<rect width="90" height="67.5" fill="white" transform="translate(0.75)"/>
</clipPath>
</defs>
</svg>
