<svg width="60" height="77" viewBox="0 0 60 77" fill="none" xmlns="http://www.w3.org/2000/svg">
<g clip-path="url(#clip0_2739_904)">
<path d="M8.84601 63.6983L8.81608 63.5922L8.70582 63.5891L0.9 63.3715V26.5094L6.46268 28.8593L6.58775 28.9122L6.65274 28.793L12.0102 18.9673L12.0283 18.9341L12.0285 18.8963L12.0847 9.21337L15.8376 0.921515L20.3449 15.4308L20.3769 15.5338L20.4848 15.5363L23.6911 15.6078L30.2916 33.5565L30.3062 33.5962L30.3394 33.6224L40.4 41.5707L57.6046 64.4468L59.0772 72.893L54.821 73.7687L54.7829 73.7765L54.7535 73.8018L51.303 76.766L50.9034 76.0411L50.8672 75.9755L50.7931 75.965L43.255 74.8937L43.1914 74.8847L43.1409 74.9246L41.4552 76.2567L11.5858 74.9728L11.6523 73.8134L11.6526 73.8134V73.8048V73.6755V73.6548L11.6469 73.6348L8.84601 63.6983Z" fill="#00BFC3" fill-opacity="0.25" stroke="#09443E" stroke-width="0.3"/>
</g>
<defs>
<clipPath id="clip0_2739_904">
<rect width="58.5" height="76.5" fill="white" transform="translate(0.75 0.5)"/>
</clipPath>
</defs>
</svg>
